<svg viewBox="0 0 249 80" fill="none" xmlns="http://www.w3.org/2000/svg" shape-rendering="geometricPrecision">
<path d="M108 55.4299V25.1536H116.547L124.816 45.6967H125.072L132.337 25.1536H140.905V55.4299H134.217V38.3071H133.961L127.572 55.4299H122.017L114.923 37.6104H114.666V55.4299H108Z" fill="#040D21"/>
<path d="M145.456 44.1344C145.456 40.5451 146.425 37.6315 148.362 35.3935C150.314 33.1555 152.842 32.0365 155.947 32.0365C157.557 32.0365 158.91 32.3672 160.007 33.0288C161.118 33.6763 161.937 34.4012 162.464 35.2035H162.827V32.6065H169.601V55.4299H162.87V52.833H162.507C162.307 53.1567 162.051 53.4734 161.738 53.7831C161.424 54.0928 161.011 54.4306 160.498 54.7965C160 55.1484 159.366 55.437 158.597 55.6622C157.842 55.8874 157.016 56 156.118 56C152.927 56 150.349 54.9162 148.383 52.7486C146.432 50.5809 145.456 47.7095 145.456 44.1344ZM152.315 44.0077C152.315 45.7812 152.806 47.2169 153.789 48.3148C154.772 49.3986 156.061 49.9405 157.657 49.9405C159.252 49.9405 160.534 49.3845 161.503 48.2726C162.471 47.1465 162.956 45.7249 162.956 44.0077C162.956 42.2201 162.457 40.7914 161.46 39.7217C160.463 38.6379 159.181 38.096 157.614 38.096C156.047 38.096 154.772 38.6449 153.789 39.7428C152.806 40.8407 152.315 42.2623 152.315 44.0077Z" fill="#040D21"/>
<path d="M172.699 32.6065H179.75L182.805 47.2591H183.169L187.528 32.6065H194.151L198.51 47.2591H198.873L201.929 32.6065H208.98L202.848 55.4299H195.412L190.989 41.5163H190.733L186.267 55.4299H178.831L172.699 32.6065Z" fill="#040D21"/>
<path d="M212.612 48.2514V23H219.407V47.4702C219.407 48.8496 220.048 49.5393 221.33 49.5393H222.163V55.4299H219.834C217.541 55.4299 215.76 54.7965 214.492 53.5297C213.239 52.263 212.612 50.5035 212.612 48.2514Z" fill="#040D21"/>
<path d="M224.855 44.1344C224.855 40.5451 225.824 37.6315 227.761 35.3935C229.713 33.1555 232.241 32.0365 235.347 32.0365C236.956 32.0365 238.309 32.3672 239.406 33.0288C240.517 33.6763 241.336 34.4012 241.863 35.2035H242.227V32.6065H249V55.4299H242.269V52.833H241.906C241.707 53.1567 241.45 53.4734 241.137 53.7831C240.824 54.0928 240.411 54.4306 239.898 54.7965C239.399 55.1484 238.765 55.437 237.996 55.6622C237.241 55.8874 236.415 56 235.518 56C232.327 56 229.748 54.9162 227.783 52.7486C225.831 50.5809 224.855 47.7095 224.855 44.1344ZM231.714 44.0077C231.714 45.7812 232.206 47.2169 233.189 48.3148C234.171 49.3986 235.461 49.9405 237.056 49.9405C238.651 49.9405 239.933 49.3845 240.902 48.2726C241.871 47.1465 242.355 45.7249 242.355 44.0077C242.355 42.2201 241.856 40.7914 240.859 39.7217C239.862 38.6379 238.58 38.096 237.013 38.096C235.446 38.096 234.171 38.6449 233.189 39.7428C232.206 40.8407 231.714 42.2623 231.714 44.0077Z" fill="#040D21"/>
<g clip-path="url(#clip0_101_2)">
<path d="M3.99996 32.65C1.42996 46.55 3.85996 59.65 14.65 69.65C23 77.44 34.38 80.37 45.6 80C55.05 79.65 64.75 76.47 71.18 69.51C75.115 65.06 77.7905 59.64 78.93 53.81C79.9668 48.9016 80.2533 43.8643 79.78 38.87C79.23 32.87 76.78 28.2 73.13 23.55C69.853 19.3707 65.9264 15.7446 61.5 12.81C55.13 8.55 47.6 5 40 3.6C38.0927 3.25319 36.1585 3.07583 34.22 3.07C17.84 3.08 6.99996 16.41 3.99996 32.65Z" fill="#FFD51D"/>
<path d="M78.19 27.26C76.6442 22.428 74.3787 17.8566 71.47 13.7C68.01 8.7 63.47 5.87 58.06 3.63C53.1429 1.64087 47.9348 0.465497 42.64 0.150001C35 -0.349999 26.66 0.340001 19.42 3C0.640028 9.95 -3.48997 29.33 2.64003 46.92C7.34003 60.44 16 70.7 30.33 74C41.52 76.56 52.81 73.36 62.33 67.28C70.33 62.16 77.18 54.41 79.33 45.02C80.5224 39.1117 80.1396 32.9936 78.22 27.28" fill="#74D9D7"/>
<path d="M66.64 13.35C62.6819 9.29429 57.7096 6.37303 52.24 4.89C47.6458 3.57353 42.8775 2.96653 38.1 3.09C32.37 3.22 27.76 5.29 23.1 8.44C18.8989 11.3017 15.1849 14.8199 12.1 18.86C7.67002 24.69 3.75002 31.65 2.00002 38.81C-2.63998 57.39 10.25 70.87 27.21 75.27C40.21 78.65 52.85 77.2 63.07 67.52C71.07 59.98 74.59 49.32 74.94 38.52C75.24 29.45 72.86 19.94 66.67 13.32" fill="#F459A5"/>
<path d="M79.58 37.58C78.58 32.39 76.17 27.58 73.7 22.96C70.17 16.27 66.37 9.4 60.65 4.35C54.73 -0.860001 46.49 -0.720001 39.28 1.3C32.76 3.13 24.58 5.42 19.46 9.92C14.64 14.16 11.94 21.04 10.62 27.22C8.11003 39 4.95003 57.14 15.13 66.17C20.99 71.36 29.13 73.55 36.76 73.82C44.84 74.11 55.09 71.42 63.58 66.34C74.1 60.04 81.93 50.08 79.58 37.57" fill="#5F6CFF"/>
<path d="M76.11 29.23C74.6565 24.2264 71.8949 19.7009 68.11 16.12C64.9573 13.0609 61.3558 10.5013 57.43 8.53C52.74 6.16 48.12 5.84 43 6.38C38.3857 6.89577 33.8846 8.15188 29.67 10.1C23.3369 12.8555 17.6259 16.8623 12.88 21.88C1.16 34.95 5.79 51.48 17.62 62.39C26.72 70.78 37.53 75.06 49.95 71.64C59.64 69 67.07 61.86 72 53.26C76.13 46.03 78.29 37.26 76.12 29.26" fill="black"/>
<path d="M55.29 35.18C53.68 32.97 50.74 29.84 47.93 32.18C47.379 32.7219 46.7219 33.144 46 33.42C44.36 33.91 43.55 32.24 42.83 31.1C41.9634 29.4296 40.8547 27.8964 39.54 26.55C39.1075 26.138 38.5777 25.8421 38 25.69C37.2739 25.5719 36.5293 25.706 35.89 26.07C32.21 27.99 29.46 31.43 27.38 34.93C25.3 38.43 23.09 42.86 23.3 47.15C23.36 48.33 23.47 49.93 24.42 50.78C25.74 51.94 27.62 50.72 28.69 49.78L29.39 49.16C31.57 47.16 33.61 45.05 36.39 43.91C36.5944 43.7943 36.8252 43.7335 37.06 43.7335C37.2948 43.7335 37.5257 43.7943 37.73 43.91C39.02 44.91 37.19 47.83 37.49 49.21C37.6411 49.8141 37.9921 50.3494 38.4859 50.7289C38.9797 51.1083 39.5873 51.3096 40.21 51.3C42.36 51.3 44.31 49.41 46.03 48.3C47.21 47.56 48.88 46.37 50.35 46.45C52.35 46.56 51.35 48.78 51.98 49.92C52.1968 50.2274 52.4785 50.4834 52.805 50.67C53.1316 50.8566 53.4951 50.9693 53.87 51C54.6188 51.1461 55.3912 51.1169 56.1267 50.9145C56.8623 50.7122 57.541 50.3422 58.1096 49.8336C58.6782 49.3251 59.1213 48.6917 59.4042 47.9832C59.6871 47.2747 59.802 46.5104 59.74 45.75C59.57 41.84 57.55 38.24 55.29 35.13" fill="white"/>
</g>
<defs>
<clipPath id="clip0_101_2">
<rect width="80" height="80" fill="white"/>
</clipPath>
</defs>
</svg>
