<svg xmlns="http://www.w3.org/2000/svg" viewBox="0 0 80 80"><defs><style>.a{fill:#ffd51d;}.b{fill:#74d9d7;}.c{fill:#f459a5;}.d{fill:#5f6cff;}.e{fill:#fff;}</style></defs><title>logo</title><path class="a" d="M4,32.65c-2.57,13.9-.14,27,10.65,37C23,77.44,34.38,80.37,45.6,80c9.45-.35,19.15-3.53,25.58-10.49a33.36,33.36,0,0,0,7.75-15.7,49.63,49.63,0,0,0,.85-14.94c-.55-6-3-10.67-6.65-15.32A49.62,49.62,0,0,0,61.5,12.81C55.13,8.55,47.6,5,40,3.6a32.86,32.86,0,0,0-5.78-.53C17.84,3.08,7,16.41,4,32.65Z"/><path class="b" d="M78.19,27.26A50.48,50.48,0,0,0,71.47,13.7c-3.46-5-8-7.83-13.41-10.07A48.87,48.87,0,0,0,42.64.15C35-.35,26.66.34,19.42,3,.64,9.95-3.49,29.33,2.64,46.92,7.34,60.44,16,70.7,30.33,74c11.19,2.56,22.48-.64,32-6.72,8-5.12,14.85-12.87,17-22.26a34.36,34.36,0,0,0-1.11-17.74"/><path class="c" d="M66.64,13.35a31.72,31.72,0,0,0-14.4-8.46A46.93,46.93,0,0,0,38.1,3.09c-5.73.13-10.34,2.2-15,5.35a47.45,47.45,0,0,0-11,10.42C7.67,24.69,3.75,31.65,2,38.81c-4.64,18.58,8.25,32.06,25.21,36.46,13,3.38,25.64,1.93,35.86-7.75,8-7.54,11.52-18.2,11.87-29,.3-9.07-2.08-18.58-8.27-25.2"/><path class="d" d="M79.58,37.58c-1-5.19-3.41-10-5.88-14.62C70.17,16.27,66.37,9.4,60.65,4.35,54.73-.86,46.49-.72,39.28,1.3c-6.52,1.83-14.7,4.12-19.82,8.62-4.82,4.24-7.52,11.12-8.84,17.3C8.11,39,4.95,57.14,15.13,66.17c5.86,5.19,14,7.38,21.63,7.65,8.08.29,18.33-2.4,26.82-7.48,10.52-6.3,18.35-16.26,16-28.77"/><path d="M76.11,29.23a29.3,29.3,0,0,0-8-13.11A43.13,43.13,0,0,0,57.43,8.53C52.74,6.16,48.12,5.84,43,6.38A43.21,43.21,0,0,0,29.67,10.1,51.26,51.26,0,0,0,12.88,21.88C1.16,34.95,5.79,51.48,17.62,62.39c9.1,8.39,19.91,12.67,32.33,9.25C59.64,69,67.07,61.86,72,53.26c4.13-7.23,6.29-16,4.12-24"/><path class="e" d="M55.29,35.18c-1.61-2.21-4.55-5.34-7.36-3A5.61,5.61,0,0,1,46,33.42c-1.64.49-2.45-1.18-3.17-2.32a19.11,19.11,0,0,0-3.29-4.55A3.54,3.54,0,0,0,38,25.69a3.22,3.22,0,0,0-2.11.38c-3.68,1.92-6.43,5.36-8.51,8.86s-4.29,7.93-4.08,12.22c.06,1.18.17,2.78,1.12,3.63,1.32,1.16,3.2-.06,4.27-1l.7-.62c2.18-2,4.22-4.11,7-5.25a1.36,1.36,0,0,1,1.34,0c1.29,1-.54,3.92-.24,5.3a2.76,2.76,0,0,0,2.72,2.09c2.15,0,4.1-1.89,5.82-3,1.18-.74,2.85-1.93,4.32-1.85,2,.11,1,2.33,1.63,3.47A2.57,2.57,0,0,0,53.87,51a4.94,4.94,0,0,0,5.87-5.25c-.17-3.91-2.19-7.51-4.45-10.62"/></svg>