<?xml version="1.0" standalone="no"?>
<!DOCTYPE svg PUBLIC "-//W3C//DTD SVG 20010904//EN"
 "http://www.w3.org/TR/2001/REC-SVG-20010904/DTD/svg10.dtd">
<svg version="1.0" xmlns="http://www.w3.org/2000/svg"
 width="700.000000pt" height="700.000000pt" viewBox="0 0 700.000000 700.000000"
 preserveAspectRatio="xMidYMid meet">
<metadata>
Created by potrace 1.14, written by Peter Selinger 2001-2017
</metadata>
<g transform="translate(0.000000,700.000000) scale(0.100000,-0.100000)"
fill="#000000" stroke="none">
<path d="M3038 6995 c-1 -1 -48 -6 -103 -9 -101 -6 -116 -8 -280 -27 -354 -40
-749 -138 -1050 -259 -113 -45 -317 -148 -416 -210 -526 -328 -881 -798 -1067
-1410 -17 -55 -23 -79 -37 -140 -1 -3 -4 -18 -8 -35 -4 -16 -9 -40 -12 -53 -2
-13 -6 -31 -9 -40 -3 -9 -7 -35 -11 -57 -3 -22 -10 -67 -15 -100 -19 -122 -25
-236 -25 -450 1 -193 10 -398 20 -415 1 -3 6 -36 10 -75 3 -38 10 -88 15 -110
5 -22 11 -58 14 -80 4 -23 8 -50 11 -60 35 -154 36 -162 29 -255 -15 -194 -10
-462 12 -600 23 -147 81 -381 104 -422 6 -10 10 -22 10 -28 0 -17 101 -240
143 -315 87 -155 223 -346 331 -464 130 -142 339 -325 481 -422 28 -19 52 -36
55 -40 3 -3 23 -16 45 -29 22 -13 45 -29 51 -35 102 -96 382 -295 526 -375
288 -160 642 -300 898 -355 8 -2 47 -11 85 -20 88 -21 91 -22 200 -41 170 -29
231 -37 420 -54 94 -8 702 -6 745 3 14 3 54 8 90 12 87 8 173 20 216 29 12 2
38 7 57 10 303 48 762 209 1012 354 249 144 377 240 556 414 317 306 593 790
718 1258 20 78 66 289 75 350 3 19 8 46 10 60 8 45 16 99 21 152 3 29 8 62 10
73 14 69 20 266 20 675 0 572 -2 602 -80 970 -6 29 -66 231 -75 253 -5 12 -25
69 -46 127 -121 351 -336 766 -547 1060 -114 159 -271 330 -392 425 -27 22
-56 46 -64 53 -22 21 -261 177 -326 212 -33 18 -99 67 -147 108 -194 167 -386
269 -626 332 -42 11 -90 23 -107 25 -16 3 -41 7 -55 10 -80 15 -147 19 -340
17 -403 -4 -445 -4 -797 1 -193 3 -353 4 -355 2z"/>
</g>
</svg>
